<svg id="Layer_1" enable-background="new 0 0 512.044 512.044" height="512" viewBox="0 0 512.044 512.044" width="512" xmlns="http://www.w3.org/2000/svg"><g><g clip-rule="evenodd" fill-rule="evenodd"><path d="m162.685 148.727c-36.813 28.207-60.661 72.592-60.661 122.276v61.743c0 38.5-18.617 83.599-51.616 105.599-33 21.999-6.961 89.123 55.001 53.349 34.989-20.201 48.789 10.304 79.38 10.304 34.991 0 34.385-17.05 71.234-17.05s36.243 17.05 71.234 17.05c30.591 0 44.391-30.505 79.38-10.304 61.961 35.773 88-31.35 55.001-53.349-33-22-51.616-67.099-51.616-105.599v-61.743c0-49.684-23.851-94.063-60.664-122.267l16.1-60.087c13.339-3.586 24.454-13.99 28.286-28.29 5.717-21.339-6.946-43.272-28.284-48.99s-43.272 6.946-48.99 28.284c-3.832 14.301.593 28.868 10.351 38.643l-13.368 49.889c-17.77-7.201-37.157-11.181-57.43-11.181s-39.663 3.971-57.432 11.173l-13.366-49.881c9.758-9.775 14.183-24.342 10.351-38.643-5.718-21.338-27.651-34.002-48.99-28.284-21.339 5.717-34.002 27.651-28.284 48.99 3.832 14.301 14.947 24.704 28.286 28.29zm13.337 189.215c0-43.321 35.817-78.441 80-78.441s80 35.119 80 78.441c0 11.907-35.817 21.56-80 21.56-44.183-.001-80-9.653-80-21.56z" fill="#ff5d7d"/><path d="m256.022 259.501c-44.183 0-80 35.119-80 78.441 0 11.907 35.817 21.56 80 21.56s80-9.652 80-21.56c0-43.321-35.817-78.441-80-78.441z" fill="#fff"/></g><g><path d="m485.461 458.8c-1.889-11.958-8.38-22.178-18.278-28.775-27.769-18.513-47.163-58.516-47.163-97.279v-61.743c0-48.992-21.55-94.594-59.314-125.988l13.025-48.609c14.465-5.83 25.585-18.213 29.67-33.459 7.135-26.631-8.725-54.102-35.355-61.237-26.633-7.138-54.102 8.725-61.237 35.354-4.085 15.246-.646 31.531 8.966 43.813l-9.158 34.177c-16.316-5.34-33.288-8.05-50.596-8.05-17.313 0-34.289 2.71-50.598 8.044l-9.156-34.171c9.612-12.282 13.051-28.567 8.966-43.813-7.136-26.63-34.604-42.49-61.237-35.354-26.63 7.135-42.491 34.606-35.355 61.237 4.085 15.246 15.206 27.629 29.67 33.459l13.023 48.601c-37.762 31.395-59.312 76.999-59.312 125.996v61.743c0 38.763-19.394 78.766-47.163 97.278-9.897 6.598-16.389 16.817-18.278 28.776-1.728 10.934.646 22.622 6.514 32.069 7.173 11.549 20.537 21.177 39.111 21.175 10.98-.001 23.785-3.367 38.2-11.69 16.789-9.693 25.911-5.208 39.721 1.583 9.592 4.716 20.463 10.061 34.66 10.061 19.558 0 29.848-4.97 38.927-9.355 8.549-4.129 15.933-7.695 32.307-7.695s23.757 3.566 32.306 7.695c9.079 4.385 19.369 9.355 38.927 9.355 14.197 0 25.068-5.345 34.66-10.061 13.81-6.79 22.933-11.275 39.721-1.583 38.801 22.402 65.897 8.892 77.311-9.485 5.868-9.447 8.243-21.135 6.515-32.069zm-23.504 21.517c-9.095 14.643-27.907 15.658-50.321 2.717-26.034-15.031-44.061-6.167-58.545.955-8.377 4.119-16.29 8.009-25.835 8.009-14.981 0-22.047-3.413-30.229-7.364-9.4-4.54-20.054-9.686-41.004-9.686-20.951 0-31.605 5.146-41.005 9.686-8.182 3.952-15.248 7.364-30.229 7.364-9.545 0-17.458-3.891-25.835-8.009-14.485-7.122-32.513-15.986-58.545-.955-22.415 12.94-41.227 11.926-50.322-2.718-6.282-10.114-5.825-25.855 5.868-33.651 17.148-11.432 31.567-28.966 41.7-50.708 9.266-19.882 14.369-42.331 14.369-63.211v-61.743c0-39.873 16.282-77.194 45.097-104.406l7.896 29.466c1.427 5.327-1.745 10.821-7.072 12.249-5.334 1.43-8.5 6.913-7.07 12.248 1.197 4.467 5.238 7.414 9.653 7.414.857 0 1.728-.111 2.595-.343 15.978-4.282 25.494-20.765 21.212-36.743l-28.089-104.827c-.924-3.448-3.616-6.142-7.063-7.069-10.327-2.776-18.459-10.908-21.223-21.221-4.281-15.979 5.235-32.461 21.213-36.743 15.979-4.281 32.46 5.234 36.742 21.213 2.763 10.313-.213 21.422-7.769 28.99-2.522 2.526-3.506 6.205-2.582 9.653l17.635 65.814c4.281 15.978 20.763 25.497 36.743 21.213 5.334-1.429 8.5-6.913 7.071-12.248-1.43-5.334-6.914-8.501-12.248-7.071-2.58.692-5.275.337-7.588-.999s-3.968-3.492-4.66-6.073l-1.91-7.128c14.617-4.903 29.859-7.39 45.414-7.39 15.549 0 30.786 2.493 45.411 7.401l-1.907 7.117c-1.427 5.326-6.921 8.499-12.248 7.072-5.337-1.43-10.818 1.736-12.248 7.071s1.736 10.818 7.071 12.248c15.979 4.282 32.462-5.235 36.743-21.213l17.635-65.814c.924-3.448-.06-7.127-2.582-9.653-7.556-7.568-10.532-18.677-7.769-28.99 4.281-15.978 20.762-25.493 36.743-21.213 15.978 4.281 25.494 20.764 21.213 36.742-2.764 10.313-10.896 18.445-21.223 21.221-3.447.927-6.139 3.621-7.063 7.069l-28.089 104.827c-4.281 15.978 5.235 32.46 21.212 36.743.868.232 1.738.343 2.595.343 4.415 0 8.456-2.946 9.653-7.414 1.43-5.335-1.736-10.818-7.07-12.248-5.327-1.427-8.499-6.922-7.072-12.248l7.894-29.459c28.816 27.21 45.099 64.53 45.099 104.398v61.743c0 20.88 5.103 43.329 14.369 63.211 10.133 21.742 24.553 39.277 41.7 50.709 11.695 7.796 12.152 23.537 5.869 33.652z"/><path d="m196.851 362.842c15.935 4.294 36.948 6.659 59.171 6.659 22.222 0 43.236-2.365 59.17-6.659 20.457-5.513 30.829-13.89 30.829-24.9 0-48.767-40.374-88.441-90-88.441s-90 39.674-90 88.441c.001 11.01 10.374 19.387 30.83 24.9zm-10.818-26.107c.171-9.625 2.399-18.764 6.248-27.036l15.663 35.28c-12.159-2.64-19.605-5.901-21.911-8.244zm49.963 12.074 20.027-56.557 20.026 56.557c-6.155.438-12.828.692-20.026.692-7.2 0-13.873-.255-20.027-.692zm68.103-3.829 15.663-35.28c3.849 8.272 6.077 17.411 6.248 27.036-2.305 2.342-9.751 5.603-21.911 8.244zm2.305-54.479-16.57 37.321-20.187-57.013c14.291 2.769 27.02 9.81 36.757 19.692zm-64.006-19.691-20.188 57.013-16.57-37.321c9.738-9.883 22.467-16.924 36.758-19.692z"/><path d="m154.195 40.39-.007.002c-5.311 1.517-8.382 7.051-6.865 12.361 1.255 4.393 5.26 7.255 9.613 7.255.91 0 1.835-.125 2.753-.388 5.311-1.517 8.385-7.052 6.868-12.362-1.517-5.311-7.053-8.387-12.362-6.868z"/><path d="m352.355 59.62.007.002c.918.262 1.842.387 2.751.387 4.351 0 8.353-2.864 9.608-7.256 1.517-5.31-1.561-10.846-6.872-12.363-5.308-1.515-10.845 1.558-12.362 6.868s1.558 10.845 6.868 12.362z"/><path d="m210.035 436.397c-1.079.107-2.221.161-3.395.161-8.88 0-13.17-2.887-19.109-6.882-6.813-4.584-15.292-10.29-30.273-10.29s-23.46 5.705-30.273 10.29c-5.938 3.996-10.229 6.882-19.108 6.882-5.523 0-10 4.477-10 10s4.477 10 10 10c14.982 0 23.461-5.705 30.273-10.29 5.938-3.996 10.229-6.882 19.108-6.882 8.88 0 13.17 2.887 19.108 6.882 6.813 4.584 15.292 10.29 30.274 10.29 1.828 0 3.631-.087 5.361-.257 5.496-.543 9.511-5.438 8.969-10.935-.543-5.497-5.436-9.507-10.935-8.969z"/><path d="m404.167 436.557c-8.88 0-13.17-2.887-19.108-6.882-6.813-4.584-15.292-10.29-30.273-10.29-14.982 0-23.461 5.705-30.274 10.29-5.938 3.996-10.228 6.882-19.108 6.882-1.174 0-2.318-.054-3.401-.161-5.489-.54-10.392 3.471-10.936 8.967s3.471 10.392 8.967 10.936c1.734.172 3.541.259 5.37.259 14.982 0 23.46-5.705 30.273-10.29 5.938-3.996 10.229-6.882 19.108-6.882s13.17 2.887 19.108 6.882c6.813 4.584 15.292 10.29 30.274 10.29 5.523 0 10-4.477 10-10s-4.477-10.001-10-10.001z"/><path d="m256.022 419.385h-.007c-5.523 0-9.996 4.477-9.996 10s4.48 10 10.003 10 10-4.477 10-10-4.477-10-10-10z"/></g></g></svg>