<svg id="Layer_1" enable-background="new 0 0 512.008 512.008" height="512" viewBox="0 0 512.008 512.008" width="512" xmlns="http://www.w3.org/2000/svg"><g><g clip-rule="evenodd" fill-rule="evenodd"><g><path d="m72.183 308.917 143.335 143.335c26.037-26.037 35.86-64.177 25.831-99.444-13.476-7.626-26.119-18.63-38.605-31.117-12.486-12.486-23.49-25.129-31.115-38.605-35.269-10.029-73.407-.207-99.446 25.831z" fill="#a7bdcd"/><path d="m202.744 321.691c12.487 12.487 25.13 23.491 38.605 31.117 34.579 19.568 74.64 16.889 131.603-40.074 43.232-43.231 87.259-108.79 111.066-166.648 19.786-48.086 25.606-90.853 5.395-111.064-19.266-19.267-59.031-14.878-104.361 2.716-30.724 11.924-64.005 29.914-95.192 50.716-11.915 7.947-23.524 16.304-34.569 24.89-15.972 12.417-30.764 25.314-43.59 38.14-56.964 56.964-59.641 97.024-40.072 131.604 7.624 13.474 18.629 26.117 31.115 38.603zm116.858-61.212c-15.366 15.366-40.28 15.366-55.646 0s-15.366-40.279 0-55.645c15.366-15.367 40.28-15.367 55.646 0 15.366 15.366 15.366 40.279 0 55.645zm46.422-102.068c-10.947-10.947-10.947-28.697 0-39.644 10.948-10.948 28.697-10.948 39.644 0 10.948 10.947 10.948 28.697 0 39.644-10.947 10.948-28.696 10.948-39.644 0z" fill="#6d91ac"/><g fill="#88df8e"><circle cx="291.779" cy="232.657" r="39.347"/><path d="m366.024 118.767c-10.947 10.947-10.947 28.697 0 39.644 10.948 10.948 28.697 10.948 39.644 0 10.948-10.947 10.948-28.697 0-39.644-10.947-10.948-28.696-10.948-39.644 0z"/></g></g><path d="m127.485 201.571c16.797 16.797 33.693 33.693 33.693 33.693 2.916-23.775 17.716-50.975 50.522-83.781 16.124-16.124 35.354-32.358 56.132-47.614-26.232-24.546-80.426-19.061-142.8 46.428-15.629 16.41-14.344 34.477 2.453 51.274z" fill="#a7bdcd"/><path d="m322.864 396.95c-16.797-16.797-33.693-33.693-33.693-33.693 23.775-2.915 50.975-17.716 83.78-50.522 16.124-16.124 32.358-35.354 47.613-56.132 24.546 26.231 19.061 80.426-46.427 142.799-16.409 15.63-34.475 14.346-51.273-2.452z" fill="#a7bdcd"/><path d="m176.019 412.752-68.319-68.319c-18 .317-35.307 7.332-48.099 20.124-26.988 26.988-23.013 86.06-46.939 99.875-2.542 1.469-3.411 4.722-1.941 7.264.622 1.077 1.564 1.852 2.637 2.279 3.144 1.357 50.72 21.14 80.103-11.987 1.342 5.403 2.197 12.797.124 20.534-.763 2.826.909 5.736 3.735 6.499 39.335 5.739 87.206-31.804 78.72-74.754z" fill="#ffea60"/></g><g><path d="m496.485 27.95c-21.569-21.568-63.236-20.658-120.5 2.633-34.623 14.082-72.86 35.746-107.834 60.73-16.221-11.267-37.841-13.921-61.698-7.398-28.31 7.74-58.968 28.309-88.661 59.485-19.128 20.083-18.148 44.472 2.623 65.242l30.368 30.368c-.602 9.644.505 19.14 3.315 28.563.219.735.45 1.465.688 2.193-32.835-3.213-65.898 8.304-89.673 32.078-3.905 3.905-3.905 10.237 0 14.143l21.538 21.538c-12.874 3.652-24.604 10.444-34.12 19.961-15.296 15.296-21.567 38.497-27.1 58.966-4.576 16.928-9.307 34.433-17.774 39.321-3.542 2.048-6.074 5.353-7.13 9.306-1.056 3.952-.51 8.079 1.538 11.621 1.688 2.919 4.326 5.223 7.442 6.502 2.823 1.208 16.357 6.646 33.455 7.69 15.196.925 28.881-1.897 40.492-8.258-.603 7.219 4.022 14.083 11.259 16.039.383.104.772.184 1.165.241 3.107.454 6.271.675 9.472.675 21.547-.001 44.612-10.046 60.937-27.046 10.205-10.627 16.835-23.051 19.453-35.93l22.709 22.709c1.953 1.953 4.512 2.929 7.071 2.929s5.119-.976 7.071-2.929c23.79-23.79 35.297-56.846 32.078-89.684 6.197 2.029 12.663 3.406 19.424 3.928 2.037.157 4.077.235 6.13.235 1.72 0 3.447-.064 5.179-.175l30.394 30.394c10.854 10.854 22.696 16.304 34.396 16.303 10.688 0 21.258-4.549 30.846-13.681 31.22-29.735 51.801-60.434 59.517-88.777 6.482-23.811 3.82-45.378-7.422-61.569 20.831-29.149 39.576-60.864 53.524-91.232 13.519-29.436 21.731-55.611 24.408-77.799 3.193-26.49-1.712-46.446-14.58-59.315zm-344.626 430.74c-12.72 13.246-31.162 21.207-47.5 20.889.889-6.412.491-13.226-1.193-20.003-.895-3.604-3.713-6.414-7.318-7.3-3.604-.885-7.405.297-9.868 3.075-18.772 21.163-47.492 16.118-61.083 12.095 10.308-10.511 14.962-27.729 19.84-45.775 5.119-18.938 10.412-38.52 21.935-50.042 9.847-9.847 22.919-15.801 37.099-16.982l62.65 62.65c3.307 19.342-7.663 34.21-14.562 41.393zm63.271-20.969-128.416-128.416c21.913-17.557 50.917-24.156 78.45-17.568 8.824 14.382 20.361 26.878 30.508 37.025 10.932 10.932 23.193 22.081 37.035 30.553 6.573 27.525-.019 56.499-17.577 78.406zm152.112-45.56c-7.702 7.334-19.948 15.077-37.306-2.283l-21.029-21.029c22.353-7.556 45.876-23.804 71.116-49.044 13.534-13.534 27.098-29.16 40.105-46.004 11.295 25.131-.383 68.355-52.886 118.36zm101.237-235.444c-24.284 52.872-63.597 109.945-102.599 148.946-34.312 34.312-63.834 49.994-90.25 47.963-22.3-1.72-41.895-16.248-58.593-31.982l47.703-47.704c8.177 5.358 17.607 8.041 27.038 8.041 12.637 0 25.274-4.81 34.895-14.43 16.819-16.819 18.934-42.856 6.35-61.996l33.952-33.952c5.826 3.328 12.347 5 18.872 5 9.739 0 19.479-3.707 26.894-11.122 14.829-14.829 14.829-38.958 0-53.787-14.829-14.828-38.958-14.829-53.787 0-7.184 7.184-11.14 16.734-11.14 26.894 0 6.733 1.748 13.193 5.011 18.88l-33.944 33.944c-19.14-12.584-45.177-10.468-61.996 6.35-16.836 16.836-18.939 42.913-6.31 62.058l-47.673 47.673c-31.668-33.721-44.569-64.642-17.29-108.557 2.914-4.691 1.474-10.857-3.218-13.771s-10.857-1.474-13.771 3.218c-5.738 9.237-10.088 18.253-13.079 27.104l-20.988-20.987c-17.36-17.36-9.617-29.605-2.282-37.306 49.994-52.491 93.243-64.17 118.369-52.881-6.621 5.112-13.077 10.321-19.302 15.602-4.212 3.572-4.73 9.883-1.157 14.095 3.572 4.211 9.882 4.73 14.095 1.157 41.728-35.396 93.781-67.567 139.24-86.057 47.815-19.448 83.835-22.007 98.823-7.017 16.641 16.641 11.459 59.491-13.863 114.624zm-155.949 55.188c11.443 11.442 11.443 30.061 0 41.503-11.442 11.443-30.061 11.443-41.503 0-11.442-11.443-11.442-30.062 0-41.504 11.443-11.443 30.061-11.442 41.503.001zm60.566-60.566c-3.406-3.406-5.282-7.934-5.282-12.75 0-4.817 1.876-9.345 5.282-12.751 3.515-3.516 8.133-5.273 12.751-5.273s9.236 1.758 12.751 5.273c3.406 3.406 5.282 7.934 5.282 12.751 0 4.816-1.875 9.345-5.282 12.75-7.031 7.032-18.472 7.032-25.502 0z"/><path d="m205.017 148.35h-.007c-5.523 0-9.996 4.477-9.996 10s4.48 10 10.003 10 10-4.477 10-10-4.477-10-10-10z"/></g></g></svg>